<?xml version="1.0" standalone="no"?><!DOCTYPE svg PUBLIC "-//W3C//DTD SVG 1.1//EN" "http://www.w3.org/Graphics/SVG/1.1/DTD/svg11.dtd"><svg t="1540974237083" class="icon" style="" viewBox="0 0 1024 1024" version="1.1" xmlns="http://www.w3.org/2000/svg" p-id="978" xmlns:xlink="http://www.w3.org/1999/xlink" width="200" height="200"><defs><style type="text/css"></style></defs><path d="M921.1 300.7v634.6c0 15.7-12.7 28.4-28.4 28.4H235.1c-12 0-21.6-9.7-21.6-21.6V84c0-8.8 7.1-15.9 15.9-15.9h443.1c0.9 0 1.4 1.1 0.8 1.8-0.4 0.4-0.4 1.1 0.1 1.5L920.7 300c0.2 0.2 0.4 0.4 0.4 0.7z" fill="#F4F4F4" p-id="979"></path><path d="M672.6 285.4V68.1l248.5 232.2H687.5c-8.2 0-14.9-6.7-14.9-14.9zM449.2 359.4H231c-58.4 0-105.7-47.3-105.7-105.7 0-58.4 47.3-105.7 105.7-105.7h218.2c58.4 0 105.7 47.3 105.7 105.7 0.1 58.3-47.3 105.7-105.7 105.7z" fill="#F08631" p-id="980"></path><path d="M277.7 310.6c-4.3 0-7.9-3.5-7.9-7.8v-42.4c0-4.3 3.5-7.8 7.9-7.8H375.6c9.4 0.1 16.3-1.9 20-5.7 4.1-4.1 3.9-9.8 3.9-11.7V234c-0.1-4.5-1.4-8-4.2-10.6-5.8-5.5-16.8-6.3-20.2-6.1H275.5c-4.3 0-7.9-3.5-7.9-7.8s3.5-7.8 7.9-7.8h99c2.8-0.1 20.3-0.3 31.6 10.4 5.9 5.6 9.1 13.3 9.1 22.3v0.5c0.3 11.7-4.3 18.9-8.3 23-6.9 7-17.5 10.5-31.4 10.4h-89.9v34.6c0 4.2-3.5 7.7-7.9 7.7z" fill="#FFFFFF" p-id="981"></path><path d="M753.1 842.2H356.9c-12.7 0-23.1-10.3-23.1-23.1V542.6c0-12.7 10.3-23.1 23.1-23.1H753c12.7 0 23.1 10.3 23.1 23.1v276.5c0 12.8-10.3 23.1-23 23.1z m-393.2-26h390.2V545.6H359.9v270.6z" fill="#F08631" p-id="982"></path><path d="M524.7 631.6H410c-5.5 0-10-4.5-10-10s4.5-10 10-10h114.7c5.5 0 10 4.5 10 10s-4.5 10-10 10zM524.7 690.2H410c-5.5 0-10-4.5-10-10s4.5-10 10-10h114.7c5.5 0 10 4.5 10 10s-4.5 10-10 10zM524.7 756.9H410c-5.5 0-10-4.5-10-10s4.5-10 10-10h114.7c5.5 0 10 4.5 10 10s-4.5 10-10 10zM687.7 716.5c-8.6 13.9-22.1 23-37 26.5-14.8 3.5-31 1.3-44.9-7.3-27.8-17.2-36.5-54.1-19.2-81.9 8.6-13.9 22.1-23 37-26.5 12.8-3 26.5-1.8 38.9 4l-25.4 53.8s30.9-15 53.5-25.9c1.9 3.9 3.3 8.1 4.3 12.3 3.5 14.9 1.4 31.1-7.2 45z" fill="#F08631" p-id="983"></path><path d="M715 633.8c-22.7 10.9-53.5 25.9-53.5 25.9l25.4-53.8c2 1 4 2 6 3.3 9.9 6.1 17.4 14.7 22.1 24.6z" fill="#F08631" p-id="984"></path></svg>