<?xml version="1.0" standalone="no"?><!DOCTYPE svg PUBLIC "-//W3C//DTD SVG 1.1//EN" "http://www.w3.org/Graphics/SVG/1.1/DTD/svg11.dtd"><svg t="1540974128875" class="icon" style="" viewBox="0 0 1024 1024" version="1.1" xmlns="http://www.w3.org/2000/svg" p-id="845" xmlns:xlink="http://www.w3.org/1999/xlink" width="200" height="200"><defs><style type="text/css"></style></defs><path d="M870.7 301.9v634.6c0 15.7-12.7 28.4-28.4 28.4H184.7c-12 0-21.6-9.7-21.6-21.6V85.1c0-8.8 7.1-15.9 15.9-15.9h443c0.9 0 1.4 1.1 0.8 1.8-0.4 0.4-0.4 1.1 0.1 1.5l247.5 228.6c0.2 0.2 0.3 0.5 0.3 0.8z" fill="#F4F4F4" p-id="846"></path><path d="M622.3 286.6V69.3l248.5 232.2H637.1c-8.2-0.1-14.8-6.7-14.8-14.9zM398.9 360.6H180.6c-58.4 0-105.7-47.3-105.7-105.7 0-58.4 47.3-105.7 105.7-105.7h218.2c58.4 0 105.7 47.3 105.7 105.7 0.1 58.3-47.2 105.7-105.6 105.7zM731 534.3H310.1c-9.2 0-16.6-7.4-16.6-16.6 0-9.2 7.4-16.6 16.6-16.6H731c9.2 0 16.6 7.4 16.6 16.6 0 9.2-7.4 16.6-16.6 16.6zM731 630.2H310.1c-9.2 0-16.6-7.4-16.6-16.6 0-9.2 7.4-16.6 16.6-16.6H731c9.2 0 16.6 7.4 16.6 16.6 0 9.2-7.4 16.6-16.6 16.6zM731 725H310.1c-9.2 0-16.6-7.4-16.6-16.6 0-9.2 7.4-16.6 16.6-16.6H731c9.2 0 16.6 7.4 16.6 16.6 0 9.1-7.4 16.6-16.6 16.6zM537 805.5H310.1c-9.2 0-16.6-7.4-16.6-16.6 0-9.2 7.4-16.6 16.6-16.6H537c9.2 0 16.6 7.4 16.6 16.6 0 9.2-7.4 16.6-16.6 16.6z" fill="#55A9FF" p-id="847"></path><path d="M224 307.5c-1 0-2-0.2-3-0.6-2.8-1.2-4.7-4-4.7-7v-90.2c0-4.2 3.4-7.6 7.6-7.6s7.6 3.4 7.6 7.6v72.1l52.5-50.9c3-2.9 7.7-2.9 10.6 0l53 51.1v-72.2c0-4.2 3.4-7.6 7.6-7.6 4.2 0 7.6 3.4 7.6 7.6V300c0 3.1-1.8 5.8-4.6 7-2.8 1.2-6.1 0.6-8.3-1.5L289.5 247l-60.2 58.4c-1.4 1.4-3.3 2.1-5.3 2.1z" fill="#FFFFFF" p-id="848"></path></svg>